<svg width="149" height="229" viewBox="0 0 149 229" fill="none" xmlns="http://www.w3.org/2000/svg">
<rect x="72" y="35" width="6" height="127" rx="3" fill="#436857"/>
<rect x="136" y="95" width="7" height="120" rx="3.5" transform="rotate(90 136 95)" fill="#436857"/>
<rect x="149" y="204" width="1" height="148" rx="0.5" transform="rotate(90 149 204)" fill="#436857"/>
<path d="M72.9286 151.996C73.7294 150.979 75.2707 150.979 76.0715 151.996L84.9418 163.263C85.9747 164.575 85.0402 166.5 83.3704 166.5H65.6297C63.96 166.5 63.0254 164.575 64.0583 163.263L72.9286 151.996Z" fill="#436857"/>
<path d="M76.5714 44.004C75.7707 45.0211 74.2293 45.0211 73.4286 44.004L64.5582 32.7372C63.5253 31.4252 64.4599 29.5 66.1297 29.5L83.8703 29.5C85.5401 29.5 86.4747 31.4252 85.4418 32.7372L76.5714 44.004Z" fill="#436857"/>
<path d="M23.004 96.4286C24.0211 97.2293 24.0211 98.7707 23.004 99.5714L11.7372 108.442C10.4252 109.475 8.5 108.54 8.5 106.87V89.1297C8.5 87.4599 10.4252 86.5253 11.7372 87.5582L23.004 96.4286Z" fill="#436857"/>
<path d="M128.996 100.071C127.979 99.2707 127.979 97.7293 128.996 96.9286L140.263 88.0582C141.575 87.0253 143.5 87.9599 143.5 89.6297V107.37C143.5 109.04 141.575 109.975 140.263 108.942L128.996 100.071Z" fill="#436857"/>
<path d="M40.3924 7.096L40.4884 7C40.5311 7.02133 40.5844 7.08533 40.6484 7.192C40.7231 7.29867 40.7658 7.39467 40.7764 7.48C40.7978 7.56533 40.8084 7.64533 40.8084 7.72C40.8084 8.008 40.7444 8.30133 40.6164 8.6L37.7044 15H37.5444L35.2404 8.808L32.4244 15H32.2644L29.2884 7H30.4084L32.8564 13.624L35.1604 8.616L34.5684 7H35.6884L38.1364 13.624L40.4564 8.6C40.5844 8.376 40.6484 8.10933 40.6484 7.8C40.6484 7.49067 40.5631 7.256 40.3924 7.096ZM58.4486 15.064C57.3286 15.064 56.4166 14.744 55.7126 14.104C55.0086 13.464 54.6566 12.4773 54.6566 11.144C54.6566 9.81067 55.0192 8.776 55.7446 8.04C56.4806 7.304 57.4086 6.936 58.5286 6.936C59.6592 6.936 60.5766 7.256 61.2806 7.896C61.9846 8.536 62.3366 9.52267 62.3366 10.856C62.3366 12.1893 61.9686 13.224 61.2326 13.96C60.5072 14.696 59.5792 15.064 58.4486 15.064ZM58.5606 7.064C57.7499 7.064 57.0779 7.42667 56.5446 8.152C56.0112 8.86667 55.7446 9.86933 55.7446 11.16C55.7446 12.44 55.9899 13.3893 56.4806 14.008C56.9712 14.6267 57.6219 14.936 58.4326 14.936C59.2432 14.936 59.9152 14.5787 60.4486 13.864C60.9819 13.1387 61.2486 12.136 61.2486 10.856C61.2486 9.56533 61.0032 8.61067 60.5126 7.992C60.0219 7.37333 59.3712 7.064 58.5606 7.064ZM79.3132 7.688V7.352C78.8332 7.544 78.3959 7.93333 78.0012 8.52C77.6065 9.096 77.3985 9.64 77.3772 10.152V15H76.2572V7H77.3772V9.544C77.5479 8.92533 77.8732 8.344 78.3532 7.8C78.8332 7.24533 79.3772 6.95733 79.9852 6.936H80.0492C80.2625 6.936 80.4385 7.01067 80.5772 7.16C80.7265 7.29867 80.8012 7.47467 80.8012 7.688C80.8012 7.90133 80.7265 8.07733 80.5772 8.216C80.4385 8.35467 80.2625 8.424 80.0492 8.424C79.8359 8.424 79.6599 8.35467 79.5212 8.216C79.3825 8.07733 79.3132 7.90133 79.3132 7.688ZM96.9992 15C96.0605 15 95.4685 14.7547 95.2232 14.264C95.1699 14.1573 95.1432 14.0613 95.1432 13.976V3.016H96.2632V13.864C96.2632 14.1733 96.3219 14.4133 96.4392 14.584C96.5672 14.744 96.6952 14.8293 96.8232 14.84L96.9992 14.872H97.4952V15H96.9992ZM111.349 11.288C111.349 9.90133 111.685 8.82933 112.357 8.072C113.029 7.31467 114.037 6.936 115.381 6.936C116.01 6.936 116.645 7.096 117.285 7.416V3.016H118.405V13.864C118.405 14.1733 118.464 14.4133 118.581 14.584C118.709 14.744 118.837 14.8293 118.965 14.84L119.141 14.872H119.637V15H118.661C118.224 15 117.888 14.904 117.653 14.712C117.429 14.52 117.312 14.328 117.301 14.136L117.285 13.864V13.608C117.082 13.9813 116.746 14.312 116.277 14.6C115.808 14.888 115.253 15.032 114.613 15.032C112.437 14.9787 111.349 13.7307 111.349 11.288ZM114.629 14.904C115.344 14.904 115.957 14.712 116.469 14.328C116.981 13.944 117.253 13.5653 117.285 13.192V7.56C116.528 7.22933 115.877 7.064 115.333 7.064C114.384 7.064 113.669 7.43733 113.189 8.184C112.709 8.92 112.469 9.95467 112.469 11.288C112.469 13.6987 113.189 14.904 114.629 14.904Z" fill="#436857"/>
<path d="M14.5342 194C13.5955 194 13.0035 193.755 12.7582 193.264C12.7049 193.157 12.6782 193.061 12.6782 192.976V182.016H13.7982V192.864C13.7982 193.173 13.8569 193.413 13.9742 193.584C14.1022 193.744 14.2302 193.829 14.3582 193.84L14.5342 193.872H15.0302V194H14.5342ZM29.4877 190.096C29.4877 191.419 29.717 192.389 30.1757 193.008C30.645 193.627 31.2584 193.936 32.0157 193.936C33.0824 193.936 34.0317 193.776 34.8637 193.456L34.9117 193.568C34.0584 193.899 33.093 194.064 32.0157 194.064C30.949 194.064 30.0797 193.744 29.4077 193.104C28.7357 192.464 28.3997 191.477 28.3997 190.144C28.3997 188.811 28.7517 187.776 29.4557 187.04C30.1597 186.304 31.0557 185.936 32.1437 185.936C33.0184 185.936 33.7544 186.197 34.3517 186.72C34.949 187.243 35.2477 188.016 35.2477 189.04C35.2477 189.093 35.2477 189.147 35.2477 189.2H29.5357C29.5037 189.488 29.4877 189.787 29.4877 190.096ZM34.1597 189.072C34.149 188.048 33.9517 187.291 33.5677 186.8C33.1837 186.309 32.6877 186.064 32.0797 186.064C31.4717 186.064 30.9277 186.331 30.4477 186.864C29.9784 187.397 29.6797 188.133 29.5517 189.072H34.1597ZM55.9521 194C55.2267 194 54.7307 193.861 54.4641 193.584C54.2187 193.349 54.0961 193.147 54.0961 192.976V192.64C53.5734 193.589 52.7361 194.064 51.5841 194.064C50.2401 194.064 49.4774 193.456 49.2961 192.24C49.2747 192.112 49.2641 191.984 49.2641 191.856C49.2641 191.717 49.2854 191.568 49.3281 191.408C49.3707 191.248 49.4934 191.072 49.6961 190.88C50.1014 190.496 50.9921 190.261 52.3681 190.176C52.7094 190.144 53.0241 190.128 53.3121 190.128C53.6001 190.128 53.8614 190.139 54.0961 190.16V187.504C54.0747 187.493 54.0747 187.445 54.0961 187.36C54.1174 187.264 54.0961 187.147 54.0321 187.008C53.9787 186.859 53.9041 186.715 53.8081 186.576C53.7121 186.437 53.5414 186.32 53.2961 186.224C53.0507 186.117 52.7307 186.064 52.3361 186.064C51.9414 186.064 51.4774 186.139 50.9441 186.288C50.4214 186.427 50.0374 186.565 49.7921 186.704L49.7281 186.592C50.6774 186.155 51.6427 185.936 52.6241 185.936C53.7227 185.936 54.4481 186.133 54.8001 186.528C55.0774 186.837 55.2161 187.163 55.2161 187.504V192.864C55.2161 193.173 55.2747 193.413 55.3921 193.584C55.5201 193.744 55.6481 193.829 55.7761 193.84L55.9521 193.872H56.4481V194H55.9521ZM51.8401 193.936C52.4054 193.936 52.9121 193.744 53.3601 193.360C53.8187 192.965 54.0641 192.587 54.0961 192.224V190.288C53.8081 190.267 53.5147 190.256 53.2161 190.256C52.9281 190.256 52.6401 190.272 52.3521 190.304C51.5414 190.4 51.0134 190.581 50.7681 190.848C50.5227 191.115 50.4001 191.483 50.4001 191.952C50.4001 192.037 50.4054 192.133 50.4161 192.24C50.5121 193.371 50.9867 193.936 51.8401 193.936ZM70.2884 190.288C70.2884 188.901 70.6244 187.829 71.2964 187.072C71.9684 186.315 72.9764 185.936 74.3204 185.936C74.9498 185.936 75.5844 186.096 76.2244 186.416V182.016H77.3444V192.864C77.3444 193.173 77.4031 193.413 77.5204 193.584C77.6484 193.744 77.7764 193.829 77.9044 193.84L78.0804 193.872H78.5764V194H77.6004C77.1631 194 76.8271 193.904 76.5924 193.712C76.3684 193.520 76.2511 193.328 76.2404 193.136L76.2244 192.864V192.608C76.0218 192.981 75.6858 193.312 75.2164 193.6C74.7471 193.888 74.1924 194.032 73.5524 194.032C71.3764 193.979 70.2884 192.731 70.2884 190.288ZM73.5684 193.904C74.2831 193.904 74.8964 193.712 75.4084 193.328C75.9204 192.944 76.1924 192.565 76.2244 192.192V186.56C75.4671 186.229 74.8164 186.064 74.2724 186.064C73.3231 186.064 72.6084 186.437 72.1284 187.184C71.6484 187.92 71.4084 188.955 71.4084 190.288C71.4084 192.699 72.1284 193.904 73.5684 193.904ZM93.1021 190.096C93.1021 191.419 93.3314 192.389 93.7901 193.008C94.2594 193.627 94.8727 193.936 95.6301 193.936C96.6967 193.936 97.6461 193.776 98.4781 193.456L98.5261 193.568C97.6727 193.899 96.7074 194.064 95.6301 194.064C94.5634 194.064 93.6941 193.744 93.0221 193.104C92.3501 192.464 92.0141 191.477 92.0141 190.144C92.0141 188.811 92.3661 187.776 93.0701 187.04C93.7741 186.304 94.6701 185.936 95.7581 185.936C96.6327 185.936 97.3687 186.197 97.9661 186.72C98.5634 187.243 98.8621 188.016 98.8621 189.04C98.8621 189.093 98.8621 189.147 98.8621 189.2H93.1501C93.1181 189.488 93.1021 189.787 93.1021 190.096ZM97.7741 189.072C97.7634 188.048 97.5661 187.291 97.1821 186.8C96.7981 186.309 96.3021 186.064 95.6941 186.064C95.0861 186.064 94.5421 186.331 94.0621 186.864C93.5927 187.397 93.2941 188.133 93.1661 189.072H97.7741ZM115.53 186.688V186.352C115.05 186.544 114.613 186.933 114.218 187.52C113.823 188.096 113.615 188.64 113.594 189.152V194H112.474V186H113.594V188.544C113.765 187.925 114.09 187.344 114.57 186.8C115.05 186.245 115.594 185.957 116.202 185.936H116.266C116.479 185.936 116.655 186.011 116.794 186.16C116.943 186.299 117.018 186.475 117.018 186.688C117.018 186.901 116.943 187.077 116.794 187.216C116.655 187.355 116.479 187.424 116.266 187.424C116.053 187.424 115.877 187.355 115.738 187.216C115.599 187.077 115.53 186.901 115.53 186.688ZM135.7 186.56C135.529 186.421 135.252 186.304 134.868 186.208C134.494 186.112 134.212 186.064 134.02 186.064C133.828 186.064 133.716 186.064 133.684 186.064C133.108 186.075 132.692 186.224 132.436 186.512C132.18 186.789 132.052 187.104 132.052 187.456C132.052 187.808 132.164 188.107 132.388 188.352C132.612 188.587 132.889 188.773 133.22 188.912C133.561 189.04 133.924 189.189 134.308 189.36C134.702 189.531 135.065 189.707 135.396 189.888C135.737 190.059 136.02 190.315 136.244 190.656C136.468 190.987 136.58 191.403 136.58 191.904C136.58 192.405 136.404 192.832 136.052 193.184C135.7 193.536 135.305 193.771 134.868 193.888C134.441 194.005 133.977 194.064 133.476 194.064C132.388 194.064 131.572 193.824 131.028 193.344L131.124 193.248C131.337 193.451 131.652 193.616 132.068 193.744C132.494 193.872 132.905 193.936 133.3 193.936C133.929 193.936 134.446 193.765 134.852 193.424C135.268 193.072 135.476 192.64 135.476 192.128C135.476 191.605 135.321 191.189 135.012 190.88C134.702 190.56 134.324 190.315 133.876 190.144C133.438 189.963 132.996 189.787 132.548 189.616C132.1 189.435 131.721 189.189 131.412 188.88C131.102 188.56 130.948 188.192 130.948 187.776C130.948 187.360 131.044 187.024 131.236 186.768C131.428 186.501 131.684 186.315 132.004 186.208C132.548 186.027 133.092 185.936 133.636 185.936C134.553 185.936 135.268 186.107 135.78 186.448L135.7 186.56Z" fill="#436857"/>
</svg>
